<?xml version="1.0" standalone="no"?>
<!DOCTYPE svg PUBLIC "-//W3C//DTD SVG 20010904//EN"
 "http://www.w3.org/TR/2001/REC-SVG-20010904/DTD/svg10.dtd">
<svg version="1.0" xmlns="http://www.w3.org/2000/svg"
 width="491.000000pt" height="156.000000pt" viewBox="0 0 491.000000 156.000000"
 preserveAspectRatio="xMidYMid meet">

<g transform="translate(0.000000,156.000000) scale(0.100000,-0.100000)"
fill="#000000" stroke="none">
<path d="M2110 1084 l0 -146 -33 6 c-44 8 -95 -8 -129 -41 l-28 -27 0 27 0 27
-80 0 -80 0 0 -60 0 -60 -41 45 c-60 65 -116 89 -208 88 -82 0 -116 -10 -174
-50 -61 -42 -92 -105 -92 -183 1 -104 49 -173 148 -215 41 -17 164 -20 216 -5
47 13 107 56 131 94 l20 31 0 -62 0 -63 80 0 80 0 0 128 c0 82 5 136 13 152
18 35 58 47 110 32 36 -9 44 -9 55 5 10 14 12 -14 12 -150 l0 -167 75 0 75 0
0 54 0 55 54 -54 c59 -60 91 -70 182 -63 35 3 65 13 84 27 30 21 30 21 30 1 0
-18 6 -20 80 -20 l80 0 0 113 0 112 22 -45 c28 -57 102 -131 159 -161 33 -17
66 -24 134 -27 116 -5 185 18 258 89 36 35 53 45 59 37 4 -7 8 -16 8 -20 0
-16 56 -71 91 -88 58 -30 150 -27 206 5 42 25 43 25 43 5 0 -18 6 -20 75 -20
l75 0 0 160 c0 153 1 160 20 160 19 0 20 -7 20 -107 1 -171 36 -223 153 -223
30 0 68 5 85 11 28 9 29 13 22 40 l-9 29 32 -24 c60 -44 94 -56 163 -56 37 0
84 5 105 12 42 12 119 72 119 92 0 6 -24 23 -52 37 l-53 26 -35 -25 c-61 -42
-146 -19 -165 46 l-6 22 160 0 161 0 0 48 c0 30 -8 65 -22 92 -62 121 -246
154 -363 64 l-45 -34 0 35 c0 35 0 35 -45 35 l-45 0 0 85 0 85 -80 0 -80 0 0
-85 0 -85 -100 0 c-81 0 -100 -3 -100 -15 0 -11 -8 -10 -37 7 -69 41 -185 25
-250 -35 -13 -11 -23 -15 -23 -9 0 9 -45 12 -165 12 l-165 0 0 -65 0 -65 80 0
c90 0 97 -7 61 -66 -48 -79 -180 -86 -247 -12 -124 135 -48 378 118 378 56 0
80 -10 126 -54 l34 -31 49 54 c27 30 49 60 49 67 0 14 -50 53 -110 85 -40 21
-58 24 -155 24 -96 0 -116 -3 -153 -23 -65 -34 -128 -97 -157 -155 l-25 -51 0
127 0 127 -80 0 -80 0 0 -166 0 -166 -25 16 c-13 9 -47 21 -74 27 -79 17 -147
-7 -205 -72 l-46 -51 0 206 0 206 -75 0 -75 0 0 -146z m2332 -261 c35 -41 33
-43 -51 -43 -85 0 -95 6 -61 40 26 26 91 27 112 3z m-2867 -37 c67 -67 27
-176 -65 -176 -33 0 -48 6 -71 29 -64 65 -20 171 71 171 30 0 47 -6 65 -24z
m1006 -5 c23 -23 29 -38 29 -71 0 -105 -140 -139 -184 -45 -49 102 76 195 155
116z m1125 14 c56 -39 53 -140 -6 -170 -46 -24 -87 -19 -121 14 -63 63 -20
171 68 171 21 0 48 -7 59 -15z m449 -2 c-14 -34 -17 -112 -7 -143 11 -30 11
-31 -16 -28 -27 3 -27 3 -30 96 l-3 92 32 0 c26 0 30 -3 24 -17z"/>
<path d="M351 1133 c10 -38 56 -197 101 -355 l82 -288 93 0 92 0 19 63 c10 34
34 117 53 185 19 67 37 122 40 122 4 0 32 -93 101 -337 l9 -33 92 0 93 0 82
288 c45 158 91 317 101 355 l20 67 -94 0 -93 0 -57 -236 c-32 -130 -61 -231
-65 -225 -4 7 -33 113 -66 237 l-59 225 -65 -3 -65 -3 -60 -227 c-33 -124 -62
-229 -65 -232 -3 -3 -32 101 -64 229 l-58 235 -93 0 -94 0 20 -67z"/>
</g>
</svg>
