<svg width="32" height="32" viewBox="0 0 32 32" fill="none" xmlns="http://www.w3.org/2000/svg">
<path d="M16.0003 20.0003C18.2095 20.0003 20.0003 18.2095 20.0003 16.0003C20.0003 13.7912 18.2095 12.0003 16.0003 12.0003C13.7912 12.0003 12.0003 13.7912 12.0003 16.0003C12.0003 18.2095 13.7912 20.0003 16.0003 20.0003Z" stroke="black" stroke-width="3" stroke-linecap="round" stroke-linejoin="round"/>
<path d="M24.97 19.6367C24.8087 20.0023 24.7605 20.4078 24.8318 20.801C24.9031 21.1942 25.0906 21.5571 25.37 21.8428L25.4428 21.9155C25.6681 22.1406 25.847 22.408 25.969 22.7023C26.091 22.9966 26.1537 23.312 26.1537 23.6306C26.1537 23.9492 26.091 24.2647 25.969 24.559C25.847 24.8533 25.6681 25.1206 25.4428 25.3458C25.2176 25.5712 24.9502 25.75 24.6559 25.872C24.3616 25.994 24.0462 26.0568 23.7276 26.0568C23.409 26.0568 23.0936 25.994 22.7993 25.872C22.505 25.75 22.2376 25.5712 22.0124 25.3458L21.9397 25.2731C21.654 24.9936 21.2912 24.8062 20.898 24.7349C20.5048 24.6636 20.0993 24.7117 19.7337 24.8731C19.3752 25.0267 19.0694 25.2818 18.854 25.607C18.6387 25.9322 18.5231 26.3133 18.5215 26.7034V26.9094C18.5215 27.5524 18.2661 28.169 17.8115 28.6236C17.3569 29.0782 16.7402 29.3337 16.0973 29.3337C15.4543 29.3337 14.8377 29.0782 14.3831 28.6236C13.9285 28.169 13.6731 27.5524 13.6731 26.9094V26.8003C13.6637 26.3991 13.5338 26.01 13.3003 25.6836C13.0669 25.3572 12.7406 25.1085 12.364 24.97C11.9984 24.8087 11.5928 24.7605 11.1996 24.8318C10.8064 24.9031 10.4436 25.0906 10.1579 25.37L10.0852 25.4428C9.86003 25.6681 9.59266 25.847 9.29836 25.969C9.00406 26.091 8.68861 26.1537 8.37002 26.1537C8.05144 26.1537 7.73598 26.091 7.44168 25.969C7.14738 25.847 6.88002 25.6681 6.65487 25.4428C6.42947 25.2176 6.25066 24.9502 6.12867 24.6559C6.00667 24.3616 5.94387 24.0462 5.94387 23.7276C5.94387 23.409 6.00667 23.0936 6.12867 22.7993C6.25066 22.505 6.42947 22.2376 6.65487 22.0124L6.7276 21.9397C7.00704 21.654 7.19449 21.2912 7.26579 20.898C7.33708 20.5048 7.28895 20.0993 7.1276 19.7337C6.97395 19.3752 6.71882 19.0694 6.39362 18.854C6.06842 18.6387 5.68734 18.5231 5.2973 18.5215H5.09123C4.44829 18.5215 3.83167 18.2661 3.37704 17.8115C2.9224 17.3569 2.66699 16.7402 2.66699 16.0973C2.66699 15.4543 2.9224 14.8377 3.37704 14.3831C3.83167 13.9285 4.44829 13.6731 5.09123 13.6731H5.20033C5.60153 13.6637 5.99063 13.5338 6.31705 13.3003C6.64347 13.0669 6.8921 12.7406 7.03063 12.364C7.19198 11.9984 7.24011 11.5928 7.16882 11.1996C7.09752 10.8064 6.91007 10.4436 6.63063 10.1579L6.5579 10.0852C6.3325 9.86003 6.15369 9.59266 6.0317 9.29836C5.9097 9.00406 5.8469 8.68861 5.8469 8.37002C5.8469 8.05144 5.9097 7.73598 6.0317 7.44168C6.15369 7.14738 6.3325 6.88002 6.5579 6.65487C6.78305 6.42947 7.05041 6.25066 7.34471 6.12867C7.63901 6.00667 7.95447 5.94387 8.27305 5.94387C8.59164 5.94387 8.90709 6.00667 9.20139 6.12867C9.49569 6.25066 9.76306 6.42947 9.9882 6.65487L10.0609 6.7276C10.3466 7.00704 10.7094 7.19449 11.1026 7.26579C11.4958 7.33708 11.9014 7.28895 12.267 7.1276H12.364C12.7225 6.97395 13.0282 6.71882 13.2436 6.39362C13.459 6.06842 13.5745 5.68734 13.5761 5.2973V5.09123C13.5761 4.44829 13.8315 3.83167 14.2861 3.37704C14.7408 2.9224 15.3574 2.66699 16.0003 2.66699C16.6433 2.66699 17.2599 2.9224 17.7145 3.37704C18.1692 3.83167 18.4246 4.44829 18.4246 5.09123V5.20033C18.4261 5.59037 18.5417 5.97145 18.7571 6.29665C18.9724 6.62185 19.2782 6.87698 19.6367 7.03063C20.0023 7.19198 20.4078 7.24011 20.801 7.16882C21.1942 7.09752 21.5571 6.91007 21.8428 6.63063L21.9155 6.5579C22.1406 6.3325 22.408 6.15369 22.7023 6.0317C22.9966 5.9097 23.312 5.8469 23.6306 5.8469C23.9492 5.8469 24.2647 5.9097 24.559 6.0317C24.8533 6.15369 25.1206 6.3325 25.3458 6.5579C25.5712 6.78305 25.75 7.05041 25.872 7.34471C25.994 7.63901 26.0568 7.95447 26.0568 8.27305C26.0568 8.59164 25.994 8.90709 25.872 9.20139C25.75 9.49569 25.5712 9.76306 25.3458 9.9882L25.2731 10.0609C24.9936 10.3466 24.8062 10.7094 24.7349 11.1026C24.6636 11.4958 24.7117 11.9014 24.8731 12.267V12.364C25.0267 12.7225 25.2818 13.0282 25.607 13.2436C25.9322 13.459 26.3133 13.5745 26.7034 13.5761H26.9094C27.5524 13.5761 28.169 13.8315 28.6236 14.2861C29.0782 14.7408 29.3337 15.3574 29.3337 16.0003C29.3337 16.6433 29.0782 17.2599 28.6236 17.7145C28.169 18.1692 27.5524 18.4246 26.9094 18.4246H26.8003C26.4103 18.4261 26.0292 18.5417 25.704 18.7571C25.3788 18.9724 25.1237 19.2782 24.97 19.6367Z" stroke="black" stroke-width="3" stroke-linecap="round" stroke-linejoin="round"/>
</svg>
